<svg xmlns="http://www.w3.org/2000/svg" xmlns:xlink="http://www.w3.org/1999/xlink" width="1900" height="650"
	viewBox="500 60 600 475" color-interpolation-filters="sRGB" fill="none" fill-rule="evenodd" font-size="12"
	overflow="visible" stroke-linecap="square" stroke-miterlimit="3" standalone="yes">
	<style type="text/css">
		@import url('https://fonts.googleapis.com/css?family=Fira+Code');

		.state {
			fill: #fff;
			stroke-width: 2.25;
			transition: 0.5s linear all;
		}

		.state-text {
			fill: #5c5c5c;
			font-family: 'Fira Code';
			font-size: 2em;
			transition: 0.5s linear all;
		}

		.transition {
			marker-end: url(#marker);
			stroke-width: 2.25;
			transition: 0.5s linear all;
		}

		.transition-text {
			fill: #5c5c5c;
			font-family: 'Fira Code';
			font-size: 1.15em;
			transition: 0.5s linear all;
		}

		.transition-selected {
			marker-end: url(#marker-selected);
			transition: 0.5s linear all;
		}

		.transition-failed {
			marker-end: url(#marker-failed);
			transition: 0.5s linear all;
		}

		.marker,
		.marker-selected,
		.marker-failed {
			stroke-width: .5;
			transition: 0.5s linear all;
		}

		.marker {
			fill: #a5a5a5;
			transition: 0.5s linear all;
		}

		.state,
		.transition,
		.marker {
			stroke: #a5a5a5;
			transition: 0.5s linear all;
		}

		.state-selected,
		.transition-selected,
		.marker-selected {
			stroke: #065F46;
			transition: 0.5s linear all;
		}

		.state-selected,
		.marker-selected {
			fill: #6EE7B7;
			transition: 0.5s linear all;
		}

		.state-text-selected,
		.transition-text-selected {
			fill: #065F46;
			transition: 0.5s linear all;
		}

		.marker-selected {
			fill: #5c5c5c;
			transition: 0.5s linear all;
		}

		.state-text-failed,
		.transition-text-failed {
			fill: #991b1b;
			transition: 0.5s linear all;
		}

		.state-failed,
		.marker-failed {
			fill: #fcA5a5;
			transition: 0.5s linear all;
		}

		.state-failed,
		.transition-failed,
		.marker-failed {
			stroke: #991b1b;
			transition: 0.5s linear all;
		}
	</style>

	<!-- Marker -->
	<defs id="def_Markers">
		<marker id="marker" class="marker" refX="-3.44" orient="auto" markerUnits="strokeWidth"	overflow="visible">
			<path d="M2 1L0 0l2-1v2" id="markerpath" transform="scale(-1.8)"/>
		</marker>
		<marker id="marker-selected" class="marker-selected" refX="-3.44" orient="auto" markerUnits="strokeWidth" overflow="visible">
			<path d="M2 1L0 0l2-1v2" id="markerpath" transform="scale(-1.8)"/>
		</marker>
		<marker id="marker-failed" class="marker-failed" refX="-3.44" orient="auto" markerUnits="strokeWidth" overflow="visible">
			<path d="M2 1L0 0l2-1v2" id="markerpath" transform="scale(-1.8)"/>
		</marker>
	</defs>

	<!-- States -->
	<g transform="translate(165.528 -266.457)">
		<path id="s0-inner" d="M0 566.93a28.346 28.346 0 0156.69 0 28.346 28.346 0 11-56.69 0z" class="state"/>
		<path id="s0-outer" transform="translate(5.67 -5.67)" d="M0 572.6a22.677 22.677 0 0145.35 0 22.677 22.677 0 11-45.35 0z" class="state"/>
		<text id='s0-text' x="20.96" y="574.13" class="state-text">s</text>
	</g>
	<g transform="translate(279.006 -266.457)">
		<path id="s1" d="M0 566.93a28.346 28.346 0 0156.69 0 28.346 28.346 0 11-56.69 0z" class="state"/>
		<text id="s1-text" x="20.96" y="574.13" class="state-text">1</text>
	</g>
	<g transform="translate(392.3 -266.457)">
		<path id="s2" d="M0 566.93a28.346 28.346 0 0156.69 0 28.346 28.346 0 11-56.69 0z" class="state"/>
		<text id="s2-text" x="20.96" y="574.13" class="state-text">2</text>
	</g>
	<g transform="translate(505.686 -266.457)">
		<path id="s3" d="M0 566.93a28.346 28.346 0 0156.69 0 28.346 28.346 0 11-56.69 0z" class="state"/>
		<text id="s3-text" x="20.96" y="574.13" class="state-text">3</text>
	</g>
	<g transform="translate(619.072 -391.181)">
		<path id="s4" d="M0 566.93a28.346 28.346 0 0156.69 0 28.346 28.346 0 11-56.69 0z" class="state"/>
		<text id="s4-text" x="20.96"	y="574.13" class="state-text">4</text>
	</g>
	<g transform="translate(732.458 -391.181)">
		<path id="s5" d="M0 566.93a28.346 28.346 0 0156.69 0 28.346 28.346 0 11-56.69 0z" class="state"/>
		<text id="s5-text" x="20.96" y="574.13" class="state-text">5</text>
	</g>
	<g transform="translate(619.072 -141.732)">
		<path id="s6" d="M0 566.93a28.346 28.346 0 0156.69 0 28.346 28.346 0 11-56.69 0z" class="state"/>
		<text id="s6-text" x="20.96" y="574.13" class="state-text">6</text>
	</g>
	<g transform="translate(732.458 -141.732)">
		<path id="s7" d="M0 566.93a28.346 28.346 0 0156.69 0 28.346 28.346 0 11-56.69 0z" class="state"/>
		<text id="s7-text" x="20.96" y="574.13" class="state-text">7</text>
	</g>
	<g transform="translate(845.843 -266.457)">
		<path id="s8" d="M0 566.93a28.346 28.346 0 0156.69 0 28.346 28.346 0 11-56.69 0z" class="state"/>
		<text id="s8-text" x="20.96" y="574.13" class="state-text">8</text>
	</g>
	<g transform="translate(959.229 -266.457)">
		<path id="s9" d="M0 566.93a28.346 28.346 0 0156.69 0 28.346 28.346 0 11-56.69 0z" class="state"/>
		<text id="s9-text" x="20.96" y="574.13" class="state-text">9</text>
	</g>
	<g transform="translate(1072.61 -266.457)">
		<path id="s10" d="M0 566.93a28.346 28.346 0 0156.69 0 28.346 28.346 0 11-56.69 0z" class="state"/>
		<text id="s10-text" x="13.58" y="574.13" class="state-text">10</text>
	</g>
	<g transform="translate(1188.84 -391.181)">
		<path id="s11" d="M0 566.93a28.346 28.346 0 0156.69 0 28.346 28.346 0 11-56.69 0z" class="state"/>
		<text id="s11-text" x="13.58" y="574.13" class="state-text">11</text>
	</g>
	<g transform="translate(1188.84 -141.732)">
		<path id="s12" d="M0 566.93a28.346 28.346 0 0156.69 0 28.346 28.346 0 11-56.69 0z" class="state"/>
		<text id="s12-text" x="13.58" y="574.13" class="state-text">12</text>
	</g>
	<g transform="translate(1299.39 -266.457)">
		<path id="s13" d="M0 566.93a28.346 28.346 0 0156.69 0 28.346 28.346 0 11-56.69 0z" class="state"/>
		<text id="s13-text" x="13.58" y="574.13" class="state-text">13</text>
	</g>
	<g transform="translate(1412.77 -266.457)">
		<path id="sa-inner" d="M0 566.93a28.346 28.346 0 0156.69 0 28.346 28.346 0 11-56.69 0z" class="state"/>
		<path id="sa-outer" transform="translate(5.67 -5.67)" d="M0 572.6a22.677 22.677 0 0145.35 0 22.677 22.677 0 11-45.35 0z" class="state"/>
		<text id="sa-text" x="20.96" y="574.13" class="state-text">a</text>
	</g>

	<!-- Transitions -->
	<g transform="translate(127.559 -294.803)">
		<path id="t-0-0" d="M0 595.28h29.87" class="transition"/>
	</g>
	<g transform="rotate(-47.726 -66.193 -155.73)">
		<path id="t-3-4" d="M18.53 573.83a100.15 100.15 0 01125.18-5.07l.28.23" class="transition"/>
		<text id="t-3-4-text" x="91.99" y="537.23" transform="rotate(3.626)" class="transition-text">T-->blank,R</text>
	</g>
	<g transform="translate(193.875 -294.803)">
		<path id="t-0-1" d="M28.35 595.28h48.68" class="transition"/>
		<text id="t-0-1-text" x="-506.98" y="302.67" transform="rotate(-65)" class="transition-text">B-->blank,R</text>
	</g>
	<g transform="translate(647.418 -419.528)">
		<path id="t-4-5" d="M28.35 595.28h48.59" class="transition"/>
		<text id="t-4-5-text" x="-483" y="340" transform="rotate(-60)" class="transition-text">X-->blank,R</text>
	</g>
	<g transform="translate(647.418 -170.079)">
		<path id="t-6-7" d="M28.35 595.28h48.59" class="transition"/>
		<text id="t-6-7-text" x="461.02" y="395.93" transform="rotate(45)" class="transition-text">V-->blank,R</text>
	</g>
	<g transform="scale(1 -1) rotate(-47.726 -745.426 -456.202)">
		<path id="t-3-6" d="M18.53 573.83a100.15 100.15 0 01125.18-5.07l.28.23" class="transition"/>
		<text id="t-3-6-text" x="56.37" y="-528.43" transform="scale(1 -1) rotate(-2.126)" class="transition-text">P-->blank,R</text>
	</g>
	<g transform="rotate(47.726 854.583 1245.428)">
		<path id="t-5-8" d="M19.9 575.09a105.35 105.35 0 01122.16-4.7l.29.21" class="transition"/>
		<text id="t-5-8-text" x="75.44" y="539.2" transform="rotate(4.274)" class="transition-text">S-->blank,R</text>
	</g>
	<g transform="scale(1 -1) rotate(47.726 1533.817 944.955)">
		<path id="t-7-8" d="M19.38 574.58a103.168 103.168 0 01123.31-4.84l.29.22" class="transition"/>
		<text id="t-7-8-text" x="149.1" y="-511.55" transform="scale(1 -1) rotate(-10)" class="transition-text">V-->blank,R</text>
	</g>
	<g transform="translate(874.19 -294.803)">
		<path id="t-8-9" d="M28.35 595.28h48.59" class="transition"/>
		<text id="t-8-9-text" x="-511.09" y="300.52" transform="rotate(-65)" class="transition-text">E-->blank,R</text>
	</g>

	<g transform="translate(987.576 -294.803)">
		<path id="t-9-10" d="M28.35 595.28h48.59" class="transition"/>
		<text id="t-9-10-text" y="288.02" transform="rotate(-65)" class="transition-text">
			<tspan x="-511.06" dy="0em">P-->p,L</tspan>
			<tspan x="-511.06" dy="1.2em">T-->t,L</tspan>
		</text>
	</g>
	<g transform="scale(1 -1) rotate(-47.021 -479.035 -1117.973)">
		<path id="t-10-12" d="M18.68 573.96a100.554 100.554 0 01125.75-5.9l.28.23" class="transition"/>
		<text id="t-10-12-text" x="61.85" y="-527.8" transform="scale(1 -1) rotate(-2.221)" class="transition-text">t-->blank,R</text>
	</g>
	<g transform="rotate(-47.021 211.653 -817.5)">
		<path id="t-10-11" d="M18.68 573.96a100.554 100.554 0 01125.75-5.9l.28.23" class="transition"/>
		<text id="t-10-11-text" x="36.79" y="545.17" transform="rotate(-.979)" class="transition-text">p-->blank,R</text>
	</g>
	<g transform="rotate(48.447 1074.819 1738.186)">
		<path id="t-11-13" d="M19.77 574.96a105.059 105.059 0 01121.64-3.88l.29.21" class="transition"/>
		<text id="t-11-13-text" x="31.68" y="548.27" transform="rotate(-.247)" class="transition-text">p-->blank,R</text>
	</g>
	<g transform="scale(1 -1) rotate(48.447 1742.66 1437.714)">
		<path id="t-12-13" d="M19.23 574.45a102.857 102.857 0 01122.8-4l.29.22" class="transition"/>
		<text id="t-12-13-text" x="49.99" y="-534.35" transform="scale(1 -1) rotate(-1.153)" class="transition-text">t-->blank,R</text>
	</g>
	<g transform="translate(1327.73 -294.803)">
		<path id="t-13-14" d="M28.35 595.28h48.59" class="transition"/>
		<text id="t-13-14-text" x="-484.41" y="345.24" transform="rotate(-60)" class="transition-text">E-->blank,R</text>
	</g>
	<g transform="rotate(114.444 515.47 630.456)">
		<path id="t-5-6" d="M28.35 595.28h209.21" class="transition"/>
		<text id="t-5-6-text" x="-180" y="-578" transform="rotate(-180)" class="transition-text">X-->blank,R1</text>
	</g>
	<g transform="rotate(-90 295.363 129.835)">
		<path id="t-7-5" d="M28.35 595.28H213" class="transition"/>
		<text id="t-7-5-text" x="77.48" y="613" class="transition-text">P-->blank,R</text>
	</g>
	<g transform="rotate(-90 113.945 61.803)">
		<path id="t-4-4" d="M24.55 581.1a25.327 25.327 0 115.55 34.25l-.25-.26" class="transition"/>
		<text id="t-4-4-text" x="551.17" y="-77.51" transform="rotate(90)" class="transition-text">S-->blank,R</text>
	</g>
	<g transform="rotate(-90 398.827 -223.079)">
		<path id="t-11-11" d="M24.55 581.1a25.327 25.327 0 115.55 34.25l-.25-.26" class="transition"/>
		<text id="t-11-11-text" x="530.66" y="-80.84" transform="rotate(90)" class="transition-text">blank-->blank,R</text>
	</g>
	<g transform="rotate(90 408.746 833.944)">
		<path id="t-6-6" d="M24.55 581.1a25.327 25.327 0 115.55 34.25l-.25-.26" class="transition"/>
		<text id="t-6-6-text" x="-639.38" y="87.33" transform="rotate(-90)" class="transition-text">T-->blank,R</text>
	</g>
	<g transform="translate(1100.96 -294.803)">
		<path id="t-10-10" d="M24.55 581.1a25.327 25.327 0 115.55 34.25l-.25-.26" class="transition"/>
		<text id="t-10-10-text" x="34.11" y="599.48" class="transition-text">blank-->blank,L</text>
	</g>
	<g transform="rotate(90 693.632 1118.829)">
		<path id="t-12-12" d="M24.55 581.1a25.327 25.327 0 115.55 34.25l-.25-.26" class="transition"/>
		<text id="t-12-12-text" x="-659.89" y="86.9" transform="rotate(-90)" class="transition-text">blank-->blank,R</text>
	</g>
	<g transform="translate(307.352 -294.803)">
		<path id="t-1-2" d="M28.35 595.28h48.68" class="transition"/>
		<text id="t-1-2-text" y="291.3" transform="rotate(-65)" class="transition-text">
			<tspan x="-506.89" dy="0em">P-->p,R</tspan>
			<tspan x="-506.89" dy="1.2em">T-->t,R</tspan>
		</text>
	</g>
	<g transform="translate(420.646 -294.803)">
		<path id="t-2-3" d="M28.35 595.28h48.68" class="transition"/>
		<text id="t-2-3-text" x="-508.33" y="301.62" transform="rotate(-65)" class="transition-text">B-->blank,R</text>
	</g>

	<!-- Info -->
	<g>
		<text class="transition-text">
			<tspan x="120" y="480">Um die Darstellung übersichtlich zu halten,</tspan> 
			<tspan x="120" y="480" dy="1.2em">werden die Kanten zum verwerfenden Zustand</tspan>
			<tspan x="120" y="480" dy="2.4em">und der Zustand selbst nicht dargestellt.</tspan>
		</text>
	</g>
</svg>