<svg xmlns="http://www.w3.org/2000/svg" xmlns:xlink="http://www.w3.org/1999/xlink" width="1900" height="650"
	viewBox="500 60 600 475" color-interpolation-filters="sRGB" fill="none" fill-rule="evenodd" font-size="12"
	overflow="visible" stroke-linecap="square" stroke-miterlimit="3">
	<style>
		.state {
			fill: #fff;
			stroke-width: 2.25
		}

		.state-text {
			fill: #5c5c5c;
			font-family: Fira Code;
			font-size: 2em
		}

		.transition {
			marker-end: url(#marker);
			stroke-width: 2.25;
		}

		.transition-text {
			fill: #5c5c5c;
			font-family: Fira Code;
			font-size: 1.15em
		}

		.transition-selected {
			marker-end: url(#marker-selected);
		}

		.transition-failed {
			marker-end: url(#marker-failed);
		}

		.marker,
		.marker-selected,
		.marker-failed {
			fill: #a5a5a5;
			stroke-width: .5
		}

		.state,
		.transition,
		.marker {
			stroke: #a5a5a5
		}

		.state-selected,
		.transition-selected,
		.marker-selected {
			stroke: #065F46;
		}

		.state-selected,
		.transition-selected,
		.marker-selected {
			fill: #6EE7B7;
		}

		.state-text-selected,
		.transition-text-selected {
			fill: #065F46;
		}

		.marker-selected {
			fill: #5c5c5c;
		}

		.state-text-failed,
		.transition-text-failed {
			fill: #991b1b;
		}

		.transition-failed,
		.marker-failed {
			fill: #fca5a5;
		}
	</style>

	<!-- Marker -->
	<defs id="def_Markers">
		<marker id="marker" class="marker" refX="-3.44" orient="auto" markerUnits="strokeWidth"	overflow="visible">
			<path d="M2 1L0 0l2-1v2" id="markerpath" transform="scale(-1.8)"/>
		</marker>
		<marker id="marker-selected" class="marker-selected" refX="-3.44" orient="auto" markerUnits="strokeWidth"	overflow="visible">
			<path d="M2 1L0 0l2-1v2" id="markerpath" transform="scale(-1.8)"/>
		</marker>
		<marker id="marker-failed" class="marker-failed" refX="-3.44" orient="auto" markerUnits="strokeWidth"	overflow="visible">
			<path d="M2 1L0 0l2-1v2" id="markerpath" transform="scale(-1.8)"/>
		</marker>
	</defs>

	<!-- States -->
	<g id="s0" transform="translate(165.528 -266.457)">
		<g id="s0-inner">
			<path d="M0 566.93a28.346 28.346 0 0156.69 0 28.346 28.346 0 11-56.69 0z" class="state"/>
		</g>
		<g id="s0-outer" transform="translate(5.67 -5.67)">
			<path d="M0 572.6a22.677 22.677 0 0145.35 0 22.677 22.677 0 11-45.35 0z" class="state"/>
		</g>
		<text id="s0-text" x="20.96" y="574.13" class="state-text">s</text>
	</g>
	<g id="s1" transform="translate(279.006 -266.457)">
		<path d="M0 566.93a28.346 28.346 0 0156.69 0 28.346 28.346 0 11-56.69 0z" class="state"/>
		<text x="20.96" y="574.13" class="state-text">1</text>
	</g>
	<g id="s2" transform="translate(392.3 -266.457)">
		<path d="M0 566.93a28.346 28.346 0 0156.69 0 28.346 28.346 0 11-56.69 0z" class="state"/>
		<text x="20.96" y="574.13" class="state-text">2</text>
	</g>
	<g id="s3" transform="translate(505.686 -266.457)">
		<path d="M0 566.93a28.346 28.346 0 0156.69 0 28.346 28.346 0 11-56.69 0z" class="state"/>
		<text x="20.96" y="574.13" class="state-text">3</text>
	</g>
	<g id="s4" transform="translate(619.072 -391.181)">
		<path d="M0 566.93a28.346 28.346 0 0156.69 0 28.346 28.346 0 11-56.69 0z" class="state"/>
		<text x="20.96"	y="574.13" class="state-text">4</text>
	</g>
	<g id="s5" transform="translate(732.458 -391.181)">
		<path d="M0 566.93a28.346 28.346 0 0156.69 0 28.346 28.346 0 11-56.69 0z" class="state"/>
		<text x="20.96" y="574.13" class="state-text">5</text>
	</g>
	<g id="s6" transform="translate(619.072 -141.732)">
		<path d="M0 566.93a28.346 28.346 0 0156.69 0 28.346 28.346 0 11-56.69 0z" class="state"/>
		<text x="20.96" y="574.13" class="state-text">6</text>
	</g>
	<g id="s7" transform="translate(732.458 -141.732)">
		<path d="M0 566.93a28.346 28.346 0 0156.69 0 28.346 28.346 0 11-56.69 0z" class="state"/>
		<text x="20.96" y="574.13" class="state-text">7</text>
	</g>
	<g id="s8" transform="translate(845.843 -266.457)">
		<path d="M0 566.93a28.346 28.346 0 0156.69 0 28.346 28.346 0 11-56.69 0z" class="state"/>
		<text x="20.96" y="574.13" class="state-text">8</text>
	</g>
	<g id="s9" transform="translate(959.229 -266.457)">
		<path d="M0 566.93a28.346 28.346 0 0156.69 0 28.346 28.346 0 11-56.69 0z" class="state"/>
		<text x="20.96" y="574.13" class="state-text">9</text>
	</g>
	<g id="s10" transform="translate(1072.61 -266.457)">
		<path d="M0 566.93a28.346 28.346 0 0156.69 0 28.346 28.346 0 11-56.69 0z" class="state"/>
		<text x="13.58" y="574.13" class="state-text">10</text>
	</g>
	<g id="s11" transform="translate(1188.84 -391.181)">
		<path d="M0 566.93a28.346 28.346 0 0156.69 0 28.346 28.346 0 11-56.69 0z" class="state"/>
		<text x="13.58" y="574.13" class="state-text">11</text>
	</g>
	<g id="s12" transform="translate(1188.84 -141.732)">
		<path d="M0 566.93a28.346 28.346 0 0156.69 0 28.346 28.346 0 11-56.69 0z" class="state"/>
		<text x="13.58" y="574.13" class="state-text">12</text>
	</g>
	<g id="s13" transform="translate(1299.39 -266.457)">
		<path d="M0 566.93a28.346 28.346 0 0156.69 0 28.346 28.346 0 11-56.69 0z" class="state"/>
		<text x="13.58" y="574.13" class="state-text">13</text>
	</g>
	<g id="s14" transform="translate(1412.77 -266.457)">
		<g id="s14-inner">
			<path d="M0 566.93a28.346 28.346 0 0156.69 0 28.346 28.346 0 11-56.69 0z" fill="#d5d5d5" stroke="#a5a5a5"
				stroke-linecap="round" stroke-linejoin="round" stroke-width="2.25"/>
		</g>
		<g id="s14-outer" transform="translate(5.67 -5.67)">
			<path d="M0 572.6a22.677 22.677 0 0145.35 0 22.677 22.677 0 11-45.35 0z" class="state"/>
		</g>
		<text x="20.96" y="574.13" class="state-text" id="state-text">a</text>
	</g>

	<!-- Transitions -->
	<g id="t-0-0" transform="translate(127.559 -294.803)">
		<path d="M0 595.28h29.87" class="transition"/>
	</g>
	<g id="t-3-4" transform="rotate(-47.726 -66.193 -155.73)">
		<path id="t-3-4-textpath" d="M18.53 573.83a100.15 100.15 0 01125.18-5.07l.28.23" class="transition"/>
		<text x="91.99" y="537.23" transform="rotate(3.626)" class="transition-text">T-->blank,R</text>
	</g>
	<g id="t-0-1" transform="translate(193.875 -294.803)">
		<path d="M28.35 595.28h48.68" class="transition"/>
		<text x="-506.98" y="302.67" transform="rotate(-65)" class="transition-text">B-->blank,R</text>
	</g>
	<g id="t-4-5" transform="translate(647.418 -419.528)">
		<path d="M28.35 595.28h48.59" class="transition"/>
		<text x="-483" y="340" transform="rotate(-60)" class="transition-text">X-->blank,R</text>
	</g>
	<g id="t-6-7" transform="translate(647.418 -170.079)">
		<path d="M28.35 595.28h48.59" class="transition"/>
		<text x="461.02" y="395.93" transform="rotate(45)" class="transition-text">V-->blank,R</text>
	</g>
	<g id="t-3-6" transform="scale(1 -1) rotate(-47.726 -745.426 -456.202)">
		<path d="M18.53 573.83a100.15 100.15 0 01125.18-5.07l.28.23" class="transition"/>
		<text x="56.37" y="-528.43" transform="scale(1 -1) rotate(-2.126)" class="transition-text">P-->blank,R</text>
	</g>
	<g id="t-5-8" transform="rotate(47.726 854.583 1245.428)">
		<path d="M19.9 575.09a105.35 105.35 0 01122.16-4.7l.29.21" class="transition"/>
		<text x="75.44" y="539.2" transform="rotate(4.274)" class="transition-text">S-->blank,R</text>
	</g>
	<g id="t-7-8" transform="scale(1 -1) rotate(47.726 1533.817 944.955)">
		<path d="M19.38 574.58a103.168 103.168 0 01123.31-4.84l.29.22" class="transition"/>
		<text x="149.1" y="-511.55" transform="scale(1 -1) rotate(-10)" class="transition-text">V-->blank,R</text>
	</g>
	<g id="t-8-9" transform="translate(874.19 -294.803)">
		<path d="M28.35 595.28h48.59" class="transition"/>
		<text x="-511.09" y="300.52" transform="rotate(-65)" class="transition-text">E-->blank,R</text>
	</g>

	<g id="t-9-10" transform="translate(987.576 -294.803)">
		<path d="M28.35 595.28h48.59" class="transition"/>
		<text y="288.02" transform="rotate(-65)" class="transition-text">
			<tspan x="-511.06" dy="0em">P-->p,L</tspan>
			<tspan x="-511.06" dy="1.2em">T-->t,L</tspan>
		</text>
	</g>
	<g id="t-10-12" transform="scale(1 -1) rotate(-47.021 -479.035 -1117.973)">
		<path d="M18.68 573.96a100.554 100.554 0 01125.75-5.9l.28.23" class="transition"/>
		<text x="61.85" y="-527.8" transform="scale(1 -1) rotate(-2.221)" class="transition-text">t-->blank,R</text>
	</g>
	<g id="t-10-11" transform="rotate(-47.021 211.653 -817.5)">
		<path d="M18.68 573.96a100.554 100.554 0 01125.75-5.9l.28.23" class="transition"/>
		<text x="36.79" y="545.17" transform="rotate(-.979)" class="transition-text">p-->blank,R</text>
	</g>
	<g id="t-11-13" transform="rotate(48.447 1074.819 1738.186)">
		<path d="M19.77 574.96a105.059 105.059 0 01121.64-3.88l.29.21" class="transition"/>
		<text x="31.68" y="548.27" transform="rotate(-.247)" class="transition-text">p-->blank,R</text>
	</g>
	<g id="t-12-13" transform="scale(1 -1) rotate(48.447 1742.66 1437.714)">
		<path d="M19.23 574.45a102.857 102.857 0 01122.8-4l.29.22" class="transition"/>
		<text x="49.99" y="-534.35" transform="scale(1 -1) rotate(-1.153)" class="transition-text">t-->blank,R</text>
	</g>
	<g id="t-13-14" transform="translate(1327.73 -294.803)">
		<path d="M28.35 595.28h48.59" class="transition"/>
		<text x="-484.41" y="345.24" transform="rotate(-60)" class="transition-text">E-->blank,R</text>
	</g>
	<g id="t-5-6" transform="rotate(114.444 515.47 630.456)">
		<path d="M28.35 595.28h209.21" class="transition"/>
		<text x="-180" y="-578" transform="rotate(-180)" class="transition-text">X-->blank,R1</text>
	</g>
	<g id="t-7-5" transform="rotate(-90 295.363 129.835)">
		<path d="M28.35 595.28H213" class="transition"/>
		<text x="77.48" y="613" class="transition-text">P-->blank,R</text>
	</g>
	<g id="t-4-4" transform="rotate(-90 113.945 61.803)">
		<path d="M24.55 581.1a25.327 25.327 0 115.55 34.25l-.25-.26" class="transition"/>
		<text x="551.17" y="-77.51" transform="rotate(90)" class="transition-text">S-->blank,R</text>
	</g>
	<g id="t-11-11" transform="rotate(-90 398.827 -223.079)">
		<path d="M24.55 581.1a25.327 25.327 0 115.55 34.25l-.25-.26" class="transition"/>
		<text x="530.66" y="-80.84" transform="rotate(90)" class="transition-text">blank-->blank,R</text>
	</g>
	<g id="t-6-6" transform="rotate(90 408.746 833.944)">
		<path d="M24.55 581.1a25.327 25.327 0 115.55 34.25l-.25-.26" class="transition"/>
		<text x="-639.38" y="87.33" transform="rotate(-90)" class="transition-text">T-->blank,R</text>
	</g>
	<g id="t-10-10" transform="translate(1100.96 -294.803)">
		<path d="M24.55 581.1a25.327 25.327 0 115.55 34.25l-.25-.26" class="transition"/>
		<text x="34.11" y="599.48" class="transition-text">blank-->blank,L</text>
	</g>
	<g id="t-12-12" transform="rotate(90 693.632 1118.829)">
		<path d="M24.55 581.1a25.327 25.327 0 115.55 34.25l-.25-.26" class="transition"/>
		<text x="-659.89" y="86.9" transform="rotate(-90)" class="transition-text">blank-->blank,R</text>
	</g>
	<g id="t-1-2" transform="translate(307.352 -294.803)">
		<path d="M28.35 595.28h48.68" class="transition"/>
		<text y="291.3" transform="rotate(-65)" class="transition-text">
			<tspan x="-506.89" dy="0em">P-->p,R</tspan>
			<tspan x="-506.89" dy="1.2em">T-->t,R</tspan>
		</text>
	</g>
	<g id="t-2-3" transform="translate(420.646 -294.803)">
		<path d="M28.35 595.28h48.68" class="transition"/>
		<text x="-508.33" y="301.62" transform="rotate(-65)" class="transition-text">B-->blank,R</text>
	</g>

	<!-- Info -->
	<g>
		<text class="transition-text">
			<tspan x="120" y="480">Um die Darstellung übersichtlich zu halten,</tspan> 
			<tspan x="120" y="480" dy="1.2em">werden die Kanten zum verwerfenden Zustand</tspan>
			<tspan x="120" y="480" dy="2.4em">und der Zustand selbst nicht dargestellt.</tspan>
		</text>
	</g>
</svg>